<?xml version="1.0" encoding="utf-8"?>
<!-- Generator: Adobe Illustrator 23.0.3, SVG Export Plug-In . SVG Version: 6.00 Build 0)  -->
<svg version="1.1" id="Layer_1" xmlns="http://www.w3.org/2000/svg" xmlns:xlink="http://www.w3.org/1999/xlink" x="0px" y="0px"
	 viewBox="0 0 233.3 344.1" style="enable-background:new 0 0 233.3 344.1;" xml:space="preserve">

<path class="st0" d="M204.1,327.7h-175c-7.1,0-12.8-5.7-12.8-12.8V29.2c0-7.1,5.7-12.8,12.8-12.8h177.8c5.5,0,10,4.5,10,10v288.5
	C216.9,322,211.2,327.7,204.1,327.7z"/>
<path class="st0" d="M221.1,343.6H12.2c-6.5,0-11.7-5.3-11.7-11.7V12.2c0-6.5,5.3-11.7,11.7-11.7h208.8c6.5,0,11.7,5.3,11.7,11.7
	v319.6C232.8,338.4,227.5,343.6,221.1,343.6z"/>
</svg>
